<?xml version="1.0" standalone="no"?>
<!DOCTYPE svg PUBLIC "-//W3C//DTD SVG 20010904//EN"
 "http://www.w3.org/TR/2001/REC-SVG-20010904/DTD/svg10.dtd">
<svg version="1.0" xmlns="http://www.w3.org/2000/svg"
 width="256.000000pt" height="256.000000pt" viewBox="0 0 256.000000 256.000000"
 preserveAspectRatio="xMidYMid meet">
<metadata>
Created by potrace 1.11, written by Peter Selinger 2001-2013
</metadata>
<g transform="translate(0.000000,256.000000) scale(0.100000,-0.100000)"
fill="#000000" stroke="none">
<path d="M1184 2525 c-197 -65 -944 -332 -966 -345 -10 -5 -24 -10 -32 -10 -7
0 -24 -8 -37 -19 -20 -16 -22 -22 -12 -43 8 -19 73 -49 344 -162 184 -76 348
-144 364 -151 130 -58 410 -165 437 -166 22 -1 139 42 363 135 182 75 339 140
350 145 11 5 108 46 215 91 107 45 201 87 208 92 33 28 4 66 -68 91 -25 8
-103 36 -175 62 -71 25 -173 61 -225 80 -337 118 -515 180 -586 205 l-81 28
-99 -33z m186 -311 c126 -21 161 -108 62 -156 -37 -18 -67 -23 -144 -25 -106
-3 -165 12 -205 49 -64 60 2 116 162 141 23 3 74 0 125 -9z"/>
<path d="M54 1948 c-4 -6 -8 -299 -9 -651 0 -531 2 -644 13 -668 10 -20 42
-45 103 -79 49 -28 91 -50 93 -50 3 0 31 -15 63 -33 32 -19 92 -52 133 -74 41
-22 95 -52 120 -65 25 -14 79 -43 120 -65 41 -22 104 -56 140 -75 186 -101
341 -179 359 -183 11 -2 25 3 31 10 9 11 12 196 12 713 0 775 3 743 -65 775
-60 29 -334 146 -616 263 -152 63 -285 119 -296 124 -45 20 -178 70 -186 70
-4 0 -11 -5 -15 -12z m913 -494 c17 -8 50 -35 72 -60 113 -129 88 -314 -44
-314 -71 0 -137 54 -182 149 -27 57 -34 142 -15 177 23 40 30 46 68 59 39 13
47 12 101 -11z m-337 -252 c65 -35 137 -157 133 -224 0 -10 -1 -31 -2 -48 -1
-41 -47 -90 -90 -95 -66 -8 -147 53 -187 141 -41 87 -37 166 10 217 30 33 84
36 136 9z m-282 -272 c40 -38 80 -117 87 -170 18 -148 -105 -207 -211 -101
-59 58 -89 145 -78 226 8 56 33 86 80 94 45 8 76 -5 122 -49z"/>
<path d="M2460 1953 c-38 -14 -720 -300 -795 -333 -22 -10 -92 -39 -155 -65
-63 -27 -128 -61 -145 -77 l-30 -28 -1 -716 -1 -716 21 -8 c20 -8 139 48 421
200 44 24 130 70 190 102 61 32 117 63 125 68 8 5 51 28 95 51 44 23 97 53
117 66 21 12 40 23 44 23 21 0 147 88 159 110 12 23 14 135 15 659 0 416 -4
639 -10 652 -11 19 -23 22 -50 12z m-575 -633 c30 -33 28 -149 -4 -210 -76
-147 -217 -186 -271 -75 -55 113 44 303 168 325 41 7 76 -6 107 -40z m379
-280 c33 -39 41 -87 26 -149 -31 -130 -145 -226 -228 -192 -71 30 -86 155 -29
251 47 81 101 120 164 120 34 0 46 -5 67 -30z"/>
</g>
</svg>
